<svg xmlns="http://www.w3.org/2000/svg" width="50" height="50" viewBox="0 0 50 50">
  <defs>
    <style>
      .cls-1 {
        fill: #ffb750;
      }
    </style>
  </defs>
  <path id="_001-facebook" data-name="001-facebook" class="cls-1" d="M47.24,0H2.758A2.759,2.759,0,0,0,0,2.76V47.242A2.759,2.759,0,0,0,2.76,50H26.709V30.664H20.215V23.1h6.494v-5.57c0-6.459,3.943-9.975,9.7-9.975a53.428,53.428,0,0,1,5.822.3V14.6H38.263c-3.135,0-3.742,1.49-3.742,3.676V23.1h7.5l-.977,7.568H34.522V50H47.24A2.759,2.759,0,0,0,50,47.241h0V2.757A2.759,2.759,0,0,0,47.24,0Zm0,0" transform="translate(0)"/>
</svg>
